# File created by Blade
# Date/Time:  Wed Jan 21 18:34:34 2015
#---------------------------------------------------------
:version 1.10
:name HOM
:units
  mass 1.0
  length 1.000000
  angle deg
:documentation
     Acclaim Skeleton File
:root
   axis xyz
   order TX TY TZ RX RY RZ
   position 0.000000 0.000000 0.000000
   orientation 0 0 0
:bonedata
   begin
      id 1
      name RightUpLeg_dum
      direction -1.000000 0.000000 0.000000
      length 3.693983
      axis 0.0 0.0 0.0 xyz
   end
   begin
      id 2
      name LeftUpLeg_dum
      direction 1.000000 0.000000 0.000000
      length 3.693983
      axis 0.0 0.0 0.0 xyz
   end
   begin
      id 3
      name Spine_dum
      direction 0.000000 1.000000 0.000000
      length 2.392956
      axis 0.0 0.0 0.0 xyz
   end
   begin
      id 4
      name RightUpLeg
      direction 0.000000 -1.000000 0.000000
      length 15.795667
      axis 0.0 0.0 0.0 xyz
      dof rx ry rz
   end
   begin
      id 5
      name RightLeg
      direction 0.000000 -1.000000 0.000000
      length 14.766989
      axis 0.0 0.0 0.0 xyz
      dof rx ry rz
   end
   begin
      id 6
      name RightFoot
      direction 0.000000 -0.258819 0.965926
      length 4.962790
      axis 15.0 0.0 0.0 xyz
      dof rx ry rz
   end
   begin
      id 7
      name RightToeBase
      direction 0.000000 0.000000 1.000000
      length 2.952750
      axis 0.0 0.0 0.0 xyz
      dof rx ry rz
   end
   begin
      id 8
      name LeftUpLeg
      direction 0.000000 -1.000000 0.000000
      length 15.795667
      axis 0.0 0.0 0.0 xyz
      dof rx ry rz
   end
   begin
      id 9
      name LeftLeg
      direction 0.000000 -1.000000 0.000000
      length 14.766989
      axis 0.0 0.0 0.0 xyz
      dof rx ry rz
   end
   begin
      id 10
      name LeftFoot
      direction 0.000000 -0.258819 0.965926
      length 4.962790
      axis 15.0 0.0 0.0 xyz
      dof rx ry rz
   end
   begin
      id 11
      name LeftToeBase
      direction 0.000000 0.000000 1.000000
      length 2.952750
      axis 0.0 0.0 0.0 xyz
      dof rx ry rz
   end
   begin
      id 12
      name Spine
      direction 0.000000 1.000000 0.000000
      length 0.000000
      axis 0.0 0.0 0.0 xyz
      dof rx ry rz
   end
   begin
      id 13
      name Spine_dum1
      direction 0.000000 1.000000 0.000000
      length 13.207411
      axis 0.0 0.0 0.0 xyz
   end
   begin
      id 14
      name Spine_dum2
      direction 0.000000 1.000000 0.000000
      length 13.207411
      axis 0.0 0.0 0.0 xyz
   end
   begin
      id 15
      name Spine_dum3
      direction 0.000000 1.000000 0.000000
      length 19.250100
      axis 0.0 0.0 0.0 xyz
   end
   begin
      id 16
      name RightShoulder
      direction -1.000000 0.000000 0.000000
      length 8.140465
      axis 0.0 0.0 90.0 xyz
      dof rx ry rz
   end
   begin
      id 17
      name RightArm
      direction -1.000000 0.000000 0.000000
      length 10.649840
      axis 0.0 0.0 90.0 xyz
      dof rx ry rz
   end
   begin
      id 18
      name RightForeArm
      direction -1.000000 0.000000 0.000000
      length 8.304624
      axis 0.0 0.0 90.0 xyz
      dof ry rz rx
   end
   begin
      id 19
      name RightHand
      direction -1.000000 0.000000 0.000000
      length 0.000000
      axis 0.0 0.0 90.0 xyz
      dof rx ry rz
   end
   begin
      id 20
      name RightHand_dum1
      direction -1.000000 0.000000 0.000000
      length 3.937000
      axis 0.0 0.0 90.0 xyz
   end
   begin
      id 21
      name RightHand_dum2
      direction 0.000000 0.000000 0.000000
      length 0.000000
      axis 0.0 0.0 90.0 xyz
   end
   begin
      id 22
      name RightHandThumb1
      direction 0.000000 0.000000 1.000000
      length 3.937000
      axis 0.0 0.0 90.0 xyz
      dof rx rz ry
   end
   begin
      id 23
      name LeftShoulder
      direction 1.000000 0.000000 0.000000
      length 8.140465
      axis 0.0 0.0 -90.0 xyz
      dof rx ry rz
   end
   begin
      id 24
      name LeftArm
      direction 1.000000 0.000000 0.000000
      length 10.649840
      axis 0.0 0.0 -90.0 xyz
      dof rx ry rz
   end
   begin
      id 25
      name LeftForeArm
      direction 1.000000 0.000000 0.000000
      length 8.304624
      axis 0.0 0.0 -90.0 xyz
      dof ry rz rx
   end
   begin
      id 26
      name LeftHand
      direction 1.000000 0.000000 0.000000
      length 0.000000
      axis 0.0 0.0 -90.0 xyz
      dof rx ry rz
   end
   begin
      id 27
      name LeftHand_dum1
      direction 1.000000 0.000000 0.000000
      length 3.937000
      axis 0.0 0.0 -90.0 xyz
   end
   begin
      id 28
      name LeftHand_dum2
      direction 0.000000 0.000000 0.000000
      length 0.000000
      axis 0.0 0.0 -90.0 xyz
   end
   begin
      id 29
      name LeftHandThumb1
      direction 0.000000 0.000000 1.000000
      length 3.937000
      axis 0.0 0.0 -90.0 xyz
      dof rx rz ry
   end
   begin
      id 30
      name Head
      direction 0.000000 1.000000 0.000000
      length 4.527550
      axis 0.0 0.0 0.0 xyz
      dof rx ry rz
   end
:hierarchy
   begin
      root RightUpLeg_dum LeftUpLeg_dum Spine_dum
      RightUpLeg_dum RightUpLeg
      LeftUpLeg_dum LeftUpLeg
      Spine_dum Spine
      RightUpLeg RightLeg
      RightLeg RightFoot
      RightFoot RightToeBase
      LeftUpLeg LeftLeg
      LeftLeg LeftFoot
      LeftFoot LeftToeBase
      Spine Spine_dum1 Spine_dum2 Spine_dum3
      Spine_dum1 RightShoulder
      Spine_dum2 LeftShoulder
      Spine_dum3 Head
      RightShoulder RightArm
      RightArm RightForeArm
      RightForeArm RightHand
      RightHand RightHand_dum1 RightHand_dum2
      RightHand_dum2 RightHandThumb1
      LeftShoulder LeftArm
      LeftArm LeftForeArm
      LeftForeArm LeftHand
      LeftHand LeftHand_dum1 LeftHand_dum2
      LeftHand_dum2 LeftHandThumb1
   end

# File created by Blade
# Date/Time:  Wed Jan 21 18:34:41 2015
# Frame Rate: 120.000 fps
#------------------------------------------------------
:FULLY-SPECIFIED
:DEGREES
681
root 3.781981 32.132917 -6.337297 122.379930 79.686820 77.059998
RightUpLeg -38.158299 -33.486543 25.852840
RightLeg 3.692533 -0.000000 -0.000000
RightFoot -35.377493 -32.835716 37.702398
RightToeBase 14.442058 -0.000000 -0.000000
LeftUpLeg -64.081551 -21.788996 18.015989
LeftLeg 5.845207 -0.000000 -0.000000
LeftFoot 30.124826 -44.420086 -40.826881
LeftToeBase 19.716217 -0.000000 -0.000000
Spine -53.131084 21.759074 -37.737343
RightShoulder -6.591429 25.968699 -46.599049
RightArm 5.091929 -17.522351 45.845173
RightForeArm 9.389034 -0.000000 -4.367696
RightHand 8.105671 -0.000000 8.692050
RightHandThumb1 -24.326973 -0.000000 -32.862282
LeftShoulder -21.802841 12.406373 40.680368
LeftArm 5.164874 -14.561397 -41.651128
LeftForeArm 23.075521 -0.000000 -6.357690
LeftHand -28.964718 -0.000000 0.718959
LeftHandThumb1 -26.253704 0.000000 33.147579
Head -0.151764 12.512538 -4.919930
682
root 3.786015 32.125891 -6.318698 124.646295 79.711659 79.291446
RightUpLeg -38.180614 -33.468470 25.922041
RightLeg 3.763172 -0.000000 -0.000000
RightFoot -35.530087 -32.942240 37.752671
RightToeBase 14.567529 -0.000000 -0.000000
LeftUpLeg -64.182951 -21.924320 18.121579
LeftLeg 5.807178 -0.000000 -0.000000
LeftFoot 30.412904 -44.340757 -41.210336
LeftToeBase 20.431242 -0.000000 -0.000000
Spine -53.222257 21.850099 -38.041446
RightShoulder -6.383527 26.145716 -46.539003
RightArm 5.256551 -17.555026 45.952306
RightForeArm 9.346001 -0.000000 -4.409523
RightHand 8.229375 -0.000000 8.776816
RightHandThumb1 -24.326973 -0.000000 -32.862282
LeftShoulder -21.749556 12.289789 40.661147
LeftArm 4.959251 -14.359207 -41.702773
LeftForeArm 22.899467 -0.000000 -6.341482
LeftHand -28.928580 -0.000000 0.565286
LeftHandThumb1 -26.253704 0.000000 33.147579
Head -0.038508 12.674859 -4.984198
683
root 3.788703 32.118791 -6.301319 126.920216 79.711197 81.547266
RightUpLeg -38.165261 -33.410023 25.926651
RightLeg 3.837490 -0.000000 -0.000000
RightFoot -35.717335 -33.121415 37.797601
RightToeBase 14.685757 -0.000000 -0.000000
LeftUpLeg -64.264054 -22.065189 18.197310
LeftLeg 5.777664 -0.000000 -0.000000
LeftFoot 30.654962 -44.279654 -41.493430
LeftToeBase 20.305849 -0.000000 -0.000000
Spine -53.273472 21.931862 -38.316047
RightShoulder -6.210081 26.404738 -46.476283
RightArm 5.449542 -17.699640 46.013847
RightForeArm 9.345296 -0.000000 -4.455710
RightHand 8.214851 -0.000000 9.038203
RightHandThumb1 -24.326973 -0.000000 -32.862282
LeftShoulder -21.767482 12.247956 40.585860
LeftArm 4.912568 -14.380281 -41.789481
LeftForeArm 22.976008 -0.000000 -6.340434
LeftHand -29.049285 0.000000 0.538394
LeftHandThumb1 -26.253704 0.000000 33.147579
Head 0.060288 12.849758 -5.056055
684
root 3.792581 32.110601 -6.281435 129.305623 79.704151 83.893049
RightUpLeg -38.184105 -33.380426 25.992569
RightLeg 3.910661 -0.000000 -0.000000
RightFoot -35.825547 -33.265304 37.785313
RightToeBase 14.746201 -0.000000 -0.000000
LeftUpLeg -64.349070 -22.171448 18.261977
LeftLeg 5.720353 -0.000000 -0.000000
LeftFoot 30.985950 -44.303648 -41.824253
LeftToeBase 20.471007 -0.000000 -0.000000
Spine -53.349757 21.989626 -38.584437
RightShoulder -6.027212 26.544349 -46.401418
RightArm 5.722064 -17.742555 46.055187
RightForeArm 9.411821 -0.000000 -4.500292
RightHand 8.346664 -0.000000 9.229012
RightHandThumb1 -24.326973 -0.000000 -32.862282
LeftShoulder -21.809735 12.330982 40.455306
LeftArm 5.077984 -14.368110 -41.896696
LeftForeArm 22.826570 0.000000 -6.405720
LeftHand -28.968089 0.000000 0.544203
LeftHandThumb1 -26.253704 0.000000 33.147579
Head 0.169862 13.018013 -5.109745
685
root 3.797562 32.101151 -6.261155 131.782445 79.671794 86.313252
RightUpLeg -38.218897 -33.337419 26.064022
RightLeg 3.974929 -0.000000 -0.000000
RightFoot -35.964831 -33.478379 37.779099
RightToeBase 14.802736 -0.000000 -0.000000
LeftUpLeg -64.462812 -22.293124 18.341653
LeftLeg 5.679464 -0.000000 -0.000000
LeftFoot 31.303444 -44.245628 -42.223200
LeftToeBase 20.713232 -0.000000 -0.000000
Spine -53.419562 21.987508 -38.806193
RightShoulder -5.811062 26.827050 -46.358202
RightArm 5.836103 -17.746027 46.158656
RightForeArm 9.350883 -0.000000 -4.374736
RightHand 8.075435 -0.000000 9.558540
RightHandThumb1 -24.326973 -0.000000 -32.862282
LeftShoulder -21.716245 12.116205 40.475114
LeftArm 4.771857 -14.242969 -41.927600
LeftForeArm 22.867614 -0.000000 -6.212189
LeftHand -29.096782 -0.000000 0.481680
LeftHandThumb1 -26.253704 0.000000 33.147579
Head 0.266741 13.152270 -5.202026
